<?xml version="1.0" encoding="utf-8"?>
<!-- Generator: Adobe Illustrator 22.1.0, SVG Export Plug-In . SVG Version: 6.00 Build 0)  -->
<svg version="1.1" id="Layer_1" xmlns="http://www.w3.org/2000/svg" xmlns:xlink="http://www.w3.org/1999/xlink" x="0px" y="0px"
	 viewBox="0 0 480 480" style="enable-background:new 0 0 480 480;" xml:space="preserve">
<style type="text/css">
	.st0{fill:#FFFFFF;}
</style>
<g>
	<g>
		<path class="st0" d="M456,232V56c0-22.1-17.9-40-40-40H64c-22.1,0-40,17.9-40,40v120c-13.2,0-24,10.8-24,24v240
			c0,13.2,10.8,24,24,24h176c13.2,0,24-10.8,24-24h67c7.5,0,14.5-3.4,19.1-9.4s6.1-13.6,4.1-20.9L298.5,352H344v88
			c0,13.2,10.8,24,24,24h88c13.2,0,24-10.8,24-24V256C480,242.8,469.2,232,456,232z M208,440c0,4.4-3.6,8-8,8H24c-4.4,0-8-3.6-8-8
			v-16h192V440z M208,408H16V232h192V408z M208,216H16v-16c0-4.4,3.6-8,8-8h176c4.4,0,8,3.6,8,8V216z M298.8,413.9
			c0.7,2.4,0.2,5-1.4,7s-3.8,3.1-6.4,3.1h-67v-16h73.2L298.8,413.9z M224,392v-40h57.9l10.9,40H224z M344,336H224v-48h120V336z
			 M344,256v16H224v-72c0-13.2-10.8-24-24-24H40V56c0-13.2,10.8-24,24-24h352c13.2,0,24,10.8,24,24v176h-72
			C354.8,232,344,242.8,344,256z M464,440c0,4.4-3.6,8-8,8h-88c-4.4,0-8-3.6-8-8v-16h104V440z M464,408H360V288h104V408z M464,272
			H360v-16c0-4.4,3.6-8,8-8h88c4.4,0,8,3.6,8,8V272z"/>
	</g>
</g>
<g>
	<g>
		
			<rect x="41.4" y="328" transform="matrix(0.7071 -0.7071 0.7071 0.7071 -218.8378 143.6626)" class="st0" width="45.3" height="16"/>
	</g>
</g>
<g>
	<g>
		
			<rect x="60.1" y="320" transform="matrix(0.7071 -0.7071 0.7071 0.7071 -194.4376 186.5728)" class="st0" width="135.8" height="16"/>
	</g>
</g>
<g>
	<g>
		
			<rect x="86.1" y="272" transform="matrix(0.7071 -0.7071 0.7071 0.7071 -162.8483 166.858)" class="st0" width="67.9" height="16"/>
	</g>
</g>
<g>
	<g>
		
			<rect x="375.7" y="324" transform="matrix(0.7071 -0.7071 0.7071 0.7071 -116.4424 382.8996)" class="st0" width="56.6" height="16"/>
	</g>
</g>
<g>
	<g>
		
			<rect x="391.7" y="356" transform="matrix(0.7071 -0.7071 0.7071 0.7071 -134.4085 403.5937)" class="st0" width="56.6" height="16"/>
	</g>
</g>
<g>
	<g>
		
			<rect x="206" y="128" transform="matrix(0.7071 -0.7071 0.7071 0.7071 -25.8773 209.5321)" class="st0" width="67.9" height="16"/>
	</g>
</g>
<g>
	<g>
		
			<rect x="278.1" y="112" transform="matrix(0.7071 -0.7071 0.7071 0.7071 6.5261 255.7607)" class="st0" width="67.9" height="16"/>
	</g>
</g>
<g>
	<g>
		
			<rect x="233.4" y="168" transform="matrix(0.7071 -0.7071 0.7071 0.7071 -49.4806 232.5637)" class="st0" width="45.3" height="16"/>
	</g>
</g>
<g>
	<g>
		
			<rect x="273.3" y="72.1" transform="matrix(0.7071 -0.7071 0.7071 0.7071 30.0785 232.7415)" class="st0" width="45.4" height="16"/>
	</g>
</g>
<g>
	<g>
		<rect x="56" y="48" class="st0" width="16" height="16"/>
	</g>
</g>
<g>
	<g>
		<rect x="88" y="48" class="st0" width="16" height="16"/>
	</g>
</g>
<g>
	<g>
		<rect x="120" y="48" class="st0" width="16" height="16"/>
	</g>
</g>
</svg>
