<?xml version="1.0" encoding="utf-8"?>
<!-- Generator: Adobe Illustrator 22.1.0, SVG Export Plug-In . SVG Version: 6.00 Build 0)  -->
<svg version="1.1" id="Layer_1" xmlns="http://www.w3.org/2000/svg" xmlns:xlink="http://www.w3.org/1999/xlink" x="0px" y="0px"
	 viewBox="0 0 512 512" style="enable-background:new 0 0 512 512;" xml:space="preserve">
<style type="text/css">
	.st0{fill:#FFFFFF;}
</style>
<path class="st0" d="M493.9,142.1c-15.8-30.7-42.7-53.4-75.7-64c-16.7-5.3-33.9-7.2-51.1-5.6C348.4,29.9,305.7,0,256.2,0
	s-92.2,29.9-111,72.5c-17.2-1.6-34.4,0.3-51.1,5.6c-68,21.7-105.6,94.7-83.9,162.7c10.5,32.9,33.2,59.8,64,75.7
	c18.6,9.6,38.8,14.5,59.2,14.5c1.2,0,2.5,0,3.7-0.1l3.7,28.8c0.8,6.3,7.6,10.4,13.5,8.1l14-5.3c12.4,28.3,2.8,64-22.5,80.1
	c-4.3,2.7-5.9,8.4-3.6,12.9c2.6,5.3,9.5,7.2,14.5,4.1c33.7-21.5,46.4-66.8,30.6-104.2l11.7-4.4c2.9-1.1,5.1-3.4,6-6.4
	c0.9-2.9,0.5-6.1-1.2-8.7l-12.5-18.6c14.2-7.1,27-16.6,37.7-28.4l-6.3,26.8c-0.7,3,0,6.2,1.9,8.6s4.8,3.8,7.9,3.8h13.8v173.8
	c0,5.5,4.6,10.1,10.1,10.1c5.5,0,10.1-4.6,10.1-10.1V328.1H280c3.1,0,6-1.4,7.9-3.8c1.9-2.4,2.6-5.6,1.9-8.6l-6.3-26.8
	c8.3,9.1,17.8,16.8,28.2,23.2l-16.1,23.9c-3.6,5.4-1.1,12.8,4.9,15.1c3,1.2,6.1,2.3,9.2,3.5c1.2,0.5,2.4,0.9,3.6,1.4
	c-2.5,19.7,2.1,39.5,13.3,56.2c12,17.8,30.1,30,51.1,34.4c5.5,1.2,11-2.6,12-8.1c1-5.3-2.6-10.5-7.8-11.7
	c-30.2-6.4-50.5-33.5-49-63.5l12.2,4.6c6,2.3,12.7-1.8,13.5-8.1l3.9-29.9c5.5,0.7,10.9,1.1,16.4,1.1c54.8,0,105.8-35.1,123.4-90.1
	C512.7,207.9,509.8,172.8,493.9,142.1z M256.2,20.1c43.6,0,80.8,27.7,94.9,66.4c2.5,7.8,4.6,15.5,5.5,23.7
	c0.9,7.9,0.7,15.9-0.1,23.9c-0.5,4.6-1.2,9.2-2.1,13.8c-4.6,23.7-14.7,49.7-28.2,71.6c-18.5,29.9-40.8,48.4-62.3,52.1
	c-5.2,0.9-10.4,0.9-15.5,0c-21.5-3.7-43.8-22.2-62.2-52.1c-17.6-28.6-29.4-64.2-30.9-92.5c-0.7-13.1,1.1-26.2,5.3-38.6
	C174.2,48.7,211.9,20.1,256.2,20.1z M157,328.7c5.1-0.9,10.1-2.2,15-3.7l7.8,11.6l-20.8,7.8L157,328.7z M172.8,303.4
	c-4.6,1.6-9.2,3.2-13.9,4.3c-4.7,1.1-9.5,1.9-14.3,2.5c-20.9,2.2-42.1-1.8-61.2-11.6c-25.9-13.4-45.1-36.1-54-63.9
	c-18.3-57.4,13.5-119,70.9-137.3c10.9-3.5,22-5.2,33.2-5.2c1.7,0,3.4,0,5.1,0.1c-3.1,12.7-4.1,25.9-3.1,39
	c2.3,31.2,14.7,68.1,33.7,98.8c12.9,20.9,27.5,36.9,42.9,47.5C200.9,288.9,187.7,297.7,172.8,303.4z M245.1,307.9l3.8-16
	c4.9,0.5,9.8,0.5,14.7,0l3.8,16H245.1z M342.7,325.7l-2.4,18.8l-20.8-7.8l10.4-15.4C334.1,322.9,338.3,324.4,342.7,325.7z
	 M483,234.7c-17.3,54.1-73.1,85.5-127.5,73.5c-8.6-1.9-16.9-4.9-24.9-8.7c-11.3-5.5-21.4-12.9-30.2-21.9
	c15.4-10.6,30-26.6,42.9-47.5c15.4-25,26.6-54.2,31.4-81c5.9-2.5,12.1-3.8,18.5-3.8c5.6,0,10.1-4.5,10.1-10.1s-4.5-10.1-10.1-10.1
	c-5.4,0-10.8,0.7-16,1.9c0.5-11.7-0.6-23.4-3.4-34.8c12.9-0.6,25.7,1.1,38.3,5.1c27.8,8.9,50.5,28.1,63.9,54S491.9,206.9,483,234.7z
	"/>
<path class="st0" d="M256.2,53.8c25.8,0,49,14.4,60.4,37.6c1.8,3.6,5.3,5.6,9,5.6c1.5,0,3-0.3,4.5-1c5-2.5,7-8.5,4.6-13.5
	c-14.9-30.1-45-48.9-78.5-48.9c-5.6,0-10.1,4.5-10.1,10.1C246.1,49.3,250.6,53.8,256.2,53.8z"/>
<path class="st0" d="M332.2,116.8c-4.8,1-8.3,5.3-8.1,10.2c0.2,4.9,3.9,9,8.8,9.7c4.2,0.6,8.5-1.7,10.4-5.6c1.4-2.9,1.2-6.4-0.3-9.2
	C340.8,118.1,336.5,116,332.2,116.8z"/>
</svg>
