<?xml version="1.0" encoding="utf-8"?>
<!-- Generator: Adobe Illustrator 22.1.0, SVG Export Plug-In . SVG Version: 6.00 Build 0)  -->
<svg version="1.1" id="Layer_1" xmlns="http://www.w3.org/2000/svg" xmlns:xlink="http://www.w3.org/1999/xlink" x="0px" y="0px"
	 viewBox="0 0 512 512" style="enable-background:new 0 0 512 512;" xml:space="preserve">
<style type="text/css">
	.st0{fill:#FFFFFF;}
</style>
<path class="st0" d="M256,326c-5.5,0-10,4.4-10,10c0,5.5,4.4,10,10,10c5.5,0,10-4.4,10-10C266,330.5,261.6,326,256,326z"/>
<path class="st0" d="M99.8,316.3c0,0,0,0.1-0.1,0.1L46.6,458.5c-1.6,4.4,0,9.2,3.8,11.8C53,472,114.6,512,256,512s203-40,205.5-41.7
	c3.9-2.6,5.4-7.5,3.8-11.8l-53.3-142.2c0,0,0-0.1-0.1-0.1c-10-25.5-22.4-49.7-36.9-71.9c-14.6-22.4-30.8-41.8-48.2-57.8
	c2.2-10.1,6.9-32.4,11.3-54.5c2.5-12.5,4.5-23.2,6.1-32H356c27.6,0,50-22.4,50-50c0-1.4-0.1-2.9-0.2-4.3C403.6,20.1,382.2,0,356,0
	h-54.2c-4,0-7.6,2.4-9.2,6c-6.4,14.6-20.8,24-36.7,24s-30.3-9.4-36.7-24c-1.6-3.6-5.2-6-9.2-6H156c-27.6,0-50,22.4-50,50
	s22.4,50,50,50h11.6c1.6,8.7,3.6,19.4,6.1,32c4.4,22.1,9.1,44.3,11.3,54.5C150.3,218.4,120.2,264.3,99.8,316.3z M358.4,255.1
	c13.7,21,25.5,43.9,35,68.2l50.2,134.2C424.7,467.2,365.5,492,256,492c-108.9,0-168.6-24.9-187.6-34.5l50.1-134
	c19.5-49.9,48.3-93.6,81.3-123.5h10l-4.9,9.7C193.3,233.1,186,266.2,186,296c0,5.5,4.5,10,10,10s10-4.5,10-10
	c0-26.9,6.4-56.6,16.8-77.3l9.3-18.7H246v96c0,5.5,4.5,10,10,10s10-4.5,10-10v-96h13.8l9.3,18.7c10.4,20.8,16.8,50.4,16.8,77.3
	c0,5.5,4.5,10,10,10s10-4.5,10-10c0-29.8-7.3-62.9-18.9-86.3l-4.9-9.7h10C328.8,215.1,344.3,233.6,358.4,255.1z M307.9,180H204.1
	c-1.9-8.8-5.1-23.8-8.4-40h120.6C313,156.2,309.8,171.2,307.9,180z M126,50c0-16.5,13.5-30,30-30h48c10.6,18.4,30.4,30,52,30
	c21.6,0,41.3-11.6,52-30h48c15.5,0,28.6,12,29.9,27.4c0.1,0.8,0.1,1.7,0.1,2.6c0,16.5-13.5,30-30,30h-10V70c0-5.5-4.5-10-10-10
	s-10,4.5-10,10v19.2c-1.3,8-3.3,18.3-5.7,30.8H191.7c-2.4-12.5-4.4-22.9-5.7-30.8V70c0-5.5-4.5-10-10-10s-10,4.5-10,10v10h-10
	C139.5,80,126,66.5,126,50z"/>
</svg>
