<svg viewBox="-46 0 512 512" xmlns="http://www.w3.org/2000/svg"><path d="m210.019531 326c-5.519531-.011719-10.007812 4.449219-10.019531 9.980469-.007812 5.519531 4.449219 10.007812 9.980469 10.019531 5.519531.011719 10.011719-4.449219 10.019531-9.980469.011719-5.519531-4.449219-10.007812-9.980469-10.019531zm0 0"/><path d="m53.835938 316.289062c-.015626.046876-.035157.09375-.050782.136719l-53.152344 142.070313c-1.625 4.351562-.042968 9.246094 3.820313 11.824218 2.554687 1.703126 64.144531 41.679688 205.546875 41.679688s202.996094-39.976562 205.546875-41.679688c3.867187-2.578124 5.449219-7.476562 3.820313-11.828124l-53.273438-142.238282c-.015625-.046875-.03125-.09375-.050781-.136718-9.992188-25.546876-22.40625-49.742188-36.890625-71.910157-14.625-22.363281-30.808594-41.761719-48.15625-57.753906 2.175781-10.144531 6.914062-32.421875 11.320312-54.5 2.496094-12.519531 4.539063-23.222656 6.097656-31.953125h11.585938c27.570312 0 50-22.429688 50-50 0-1.445312-.0625-2.902344-.183594-4.296875-2.175781-25.609375-23.644531-45.703125-49.816406-45.703125h-54.160156c-3.972656 0-7.570313 2.355469-9.164063 5.996094-6.371093 14.582031-20.769531 24.003906-36.675781 24.003906s-30.300781-9.421875-36.675781-24.003906c-1.589844-3.640625-5.191407-5.996094-9.164063-5.996094h-54.160156c-27.570312 0-50 22.429688-50 50s22.429688 50 50 50h11.585938c1.5625 8.730469 3.605468 19.4375 6.097656 31.957031 4.40625 22.070313 9.144531 44.339844 11.320312 54.488281-34.703125 31.925782-64.839844 77.824219-85.167968 129.84375zm258.574218-61.140624c13.722656 21 25.492188 43.941406 34.980469 68.1875l50.242187 134.15625c-18.9375 9.695312-78.128906 34.507812-187.632812 34.507812-108.929688 0-168.5625-24.871094-187.625-34.542969l50.117188-133.953125c19.488281-49.851562 48.296874-93.578125 81.324218-123.503906h10.003906l-4.871093 9.746094c-11.6875 23.363281-18.949219 56.414062-18.949219 86.253906 0 5.523438 4.476562 10 10 10s10-4.476562 10-10c0-26.925781 6.449219-56.550781 16.835938-77.308594l9.34375-18.691406h13.820312v96c0 5.523438 4.476562 10 10 10s10-4.476562 10-10v-96h13.820312l9.347657 18.691406c10.382812 20.757813 16.832031 50.382813 16.832031 77.308594 0 5.523438 4.476562 10 10 10s10-4.476562 10-10c0-29.839844-7.257812-62.890625-18.945312-86.253906l-4.875-9.746094h10.003906c16.613281 15.082031 32.148437 33.617188 46.226562 55.148438zm-50.488281-75.148438h-103.84375c-1.875-8.753906-5.066406-23.816406-8.367187-40.011719h120.578124c-3.300781 16.195313-6.492187 31.257813-8.367187 40.011719zm-181.921875-130c0-16.542969 13.457031-30 30-30h48.027344c10.636718 18.417969 30.378906 30 51.972656 30 21.597656 0 41.335938-11.582031 51.976562-30h48.023438c15.453125 0 28.582031 12.035156 29.890625 27.425781.074219.84375.109375 1.710938.109375 2.574219 0 16.542969-13.457031 30-30 30h-10v-10c0-5.523438-4.476562-10-10-10s-10 4.476562-10 10v19.164062c-1.339844 7.96875-3.253906 18.3125-5.707031 30.835938h-128.585938c-2.449219-12.523438-4.367187-22.867188-5.707031-30.835938v-19.164062c0-5.523438-4.476562-10-10-10s-10 4.476562-10 10v10h-10c-16.542969 0-30-13.457031-30-30zm0 0"/></svg>