<?xml version="1.0" encoding="iso-8859-1"?>
<!-- Generator: Adobe Illustrator 19.0.0, SVG Export Plug-In . SVG Version: 6.00 Build 0)  -->
<svg version="1.1" id="Layer_1" xmlns="http://www.w3.org/2000/svg" xmlns:xlink="http://www.w3.org/1999/xlink" x="0px" y="0px"
	 viewBox="0 0 480.008 480.008" style="enable-background:new 0 0 480.008 480.008;" xml:space="preserve">
<g>
	<g>
		<path d="M477.344,210.047l-61.336-54.992V24.007c0-4.416-3.584-8-8-8h-88c-4.416,0-8,3.584-8,8v37.808L245.344,2.047
			c-3.04-2.728-7.64-2.728-10.68,0l-232,208c-2.472,2.216-3.32,5.72-2.136,8.816c1.192,3.104,4.16,5.144,7.48,5.144h32v216
			c0,22.056,17.944,40,40,40h80h160h80c22.056,0,40-17.944,40-40v-216h32c3.32,0,6.288-2.04,7.472-5.144
			C480.664,215.767,479.816,212.263,477.344,210.047z M328.008,32.007h72v108.704l-72-64.552V32.007z M232.008,464.007h-64v-56h64
			V464.007z M232.008,392.007h-64v-64h64V392.007z M232.008,312.007h-64v-56h64V312.007z M312.008,464.007h-64v-56h64V464.007z
			 M312.008,392.007h-64v-64h64V392.007z M312.008,312.007h-64v-56h64V312.007z M432.008,208.007c-4.416,0-8,3.584-8,8v224
			c0,13.232-10.768,24-24,24h-72v-216c0-4.416-3.584-8-8-8h-160c-4.416,0-8,3.584-8,8v216h-72c-13.232,0-24-10.768-24-24v-224
			c0-4.416-3.584-8-8-8H28.912L240.008,18.751l211.096,189.256H432.008z"/>
	</g>
</g>
<g>
	<g>
		<rect x="280.008" y="352.007" width="16" height="16"/>
	</g>
</g>
<g>
	<g>
		<path d="M240.008,72.007c-22.056,0-40,17.944-40,40v56c0,4.416,3.584,8,8,8h64c4.416,0,8-3.584,8-8v-56
			C280.008,89.951,262.064,72.007,240.008,72.007z M232.008,160.007h-16v-24h16V160.007z M232.008,120.007h-16v-8
			c0-10.416,6.712-19.216,16-22.528V120.007z M264.008,160.007h-16v-24h16V160.007z M264.008,120.007h-16V89.479
			c9.288,3.312,16,12.112,16,22.528V120.007z"/>
	</g>
</g>
<g>
	<g>
		<rect x="200.008" y="192.007" width="16" height="16"/>
	</g>
</g>
<g>
	<g>
		<rect x="232.008" y="192.007" width="16" height="16"/>
	</g>
</g>
<g>
	<g>
		<rect x="264.008" y="192.007" width="16" height="16"/>
	</g>
</g>
<g>
</g>
<g>
</g>
<g>
</g>
<g>
</g>
<g>
</g>
<g>
</g>
<g>
</g>
<g>
</g>
<g>
</g>
<g>
</g>
<g>
</g>
<g>
</g>
<g>
</g>
<g>
</g>
<g>
</g>
</svg>
