<?xml version="1.0" encoding="utf-8"?>
<!-- Generator: Adobe Illustrator 22.1.0, SVG Export Plug-In . SVG Version: 6.00 Build 0)  -->
<svg version="1.1" id="Layer_1" xmlns="http://www.w3.org/2000/svg" xmlns:xlink="http://www.w3.org/1999/xlink" x="0px" y="0px"
	 viewBox="0 0 512 512" style="enable-background:new 0 0 512 512;" xml:space="preserve">
<style type="text/css">
	.st0{fill:#FFFFFF;}
</style>
<path class="st0" d="M355.2,477.1c-0.7,0-1.3-0.1-2-0.2s-1.3-0.3-1.9-0.6c-0.6-0.2-1.2-0.6-1.7-0.9c-0.6-0.4-1.1-0.8-1.5-1.2
	c-0.5-0.5-0.9-1-1.2-1.5c-0.4-0.6-0.7-1.1-0.9-1.7c-0.2-0.6-0.4-1.2-0.6-1.9c-0.1-0.7-0.2-1.3-0.2-2s0.1-1.3,0.2-1.9
	s0.3-1.3,0.6-1.9s0.6-1.2,0.9-1.7c0.4-0.5,0.8-1.1,1.2-1.5c0.5-0.5,1-0.9,1.5-1.2c0.5-0.4,1.1-0.7,1.7-0.9c0.6-0.2,1.2-0.4,1.9-0.6
	c1.3-0.3,2.6-0.3,3.9,0c0.6,0.1,1.3,0.3,1.9,0.6c0.6,0.2,1.2,0.6,1.7,0.9c0.6,0.4,1.1,0.8,1.5,1.2c0.5,0.5,0.9,1,1.2,1.5
	c0.4,0.6,0.7,1.1,0.9,1.7s0.4,1.2,0.6,1.9c0.1,0.6,0.2,1.3,0.2,1.9c0,0.7-0.1,1.3-0.2,2c-0.1,0.6-0.3,1.3-0.6,1.9
	c-0.2,0.6-0.6,1.2-0.9,1.7c-0.4,0.5-0.8,1.1-1.2,1.5c-0.5,0.5-1,0.9-1.5,1.2c-0.5,0.4-1.1,0.7-1.7,0.9c-0.6,0.2-1.2,0.4-1.9,0.6
	C356.5,477.1,355.8,477.1,355.2,477.1z"/>
<path class="st0" d="M317.9,477.1H158.1c-5.5,0-10-4.5-10-10s4.5-10,10-10h159.8c5.5,0,10,4.5,10,10S323.4,477.1,317.9,477.1z"/>
<path class="st0" d="M460.9,214.3l-27.6-97.9c-1.5-5.4-4-10.4-7.2-14.9c3-6.4,4.6-13.6,4.6-21.2c0-28-22.8-50.7-50.7-50.7
	c-8,0-15.7,1.8-22.7,5.4C333.2,12.3,297.5-0.1,256.2,0c-36.6,0.1-69.6,10.6-93.1,29.4c-2.3,1.9-4.5,3.8-6.6,5.8
	c-7.1-3.7-15-5.6-23.2-5.6c-28,0-50.7,22.7-50.7,50.7c0,7.5,1.7,14.7,4.6,21.2C84,106,81.5,111,80,116.4l-27.6,97.9
	c-0.8,3-0.2,6.3,1.7,8.8s4.8,4,8,4h78.3c17.7,31.2,47.6,54.6,83.2,63.7v21.5h-52.8c-35.7,0-64.8,29.1-64.8,64.8V502
	c0,5.5,4.5,10,10,10h281.4c5.5,0,10-4.5,10-10V377.1c0-35.8-29.1-64.8-64.8-64.8h-52.8v-21.5c35.6-9.1,65.5-32.5,83.2-63.7h78.3
	c3.1,0,6.1-1.5,8-4S461.8,217.3,460.9,214.3z M410.8,80.3c0,13.5-8.8,25-21,29.1c-0.8-22-7.1-41.9-18.6-58.5
	c2.9-0.9,5.9-1.3,8.9-1.3C397,49.6,410.8,63.4,410.8,80.3z M256.2,20h0.6c36.9,0,68.2,11.1,88.4,31.2c16.3,16.2,24.5,37.4,24.5,62.8
	v26.3c-27.5-1.8-52.9-11-75.7-27.3c-19.3-13.9-29.4-28-29.5-28.1c-1.9-2.7-4.9-4.3-8.2-4.3l0,0c-3.3,0-6.3,1.6-8.2,4.3
	c0.1,0.1-9.9,14.2-29.1,28.1c-22.7,16.4-48.1,25.5-75.5,27.3v-25c0-25.6,8.1-45.2,21-59.8c0.5-0.5,1-1,1.5-1.5
	c0.1-0.1,0.1-0.2,0.2-0.3C188.5,29.8,224,20.1,256.2,20z M133.2,49.6c3.2,0,6.4,0.5,9.4,1.5c-11.6,16.5-18.1,36.2-19,58.4
	c-12.2-4.1-21.1-15.6-21.1-29.1C102.5,63.4,116.3,49.6,133.2,49.6z M75.2,207l24-85.2c0.3-1,0.6-2,1.1-3c6.5,5.6,14.5,9.6,23.2,11.3
	v20.5c-0.3,3.6-0.4,7.2-0.4,10.8c0,16,2.8,31.4,8.1,45.7h-56V207z M321.3,360.8l0.6,1.3c10.2,20.3,10.2,44.5,0,64.8l-0.6,1.3
	c-14.5-0.2-26.5-3.5-39-11c5.4-6,8.6-14,8.6-22.7c0-8.8-3.3-16.8-8.8-22.8C294.1,364.8,307.4,361.1,321.3,360.8z M256.6,380.2
	c7.9,0,14.3,6.4,14.3,14.3s-6.4,14.3-14.3,14.3s-14.3-6.4-14.3-14.3S248.8,380.2,256.6,380.2z M231,417.2c-12.4,7.4-24.5,10.8-39,11
	l-0.6-1.3c-10.2-20.3-10.2-44.5,0-64.8l0.6-1.3c13.8,0.3,27.3,4,39.1,10.8c-5.5,6.1-8.8,14.1-8.8,22.9
	C222.4,403.2,225.6,411.1,231,417.2z M387.3,377.1V492H126V377.1c0-24.7,20.1-44.8,44.8-44.8h9.5l8.5,8.5h-3c-3.8,0-7.2,2.1-8.9,5.5
	l-3.4,6.8c-13,25.9-13,56.8,0,82.7l3.4,6.8c1.7,3.4,5.2,5.5,8.9,5.5h4.7c27.6,0,45.9-9.7,60.1-20c2,0.4,4,0.6,6.1,0.6
	s4.1-0.2,6.1-0.6c14.2,10.3,32.5,20,60.1,20h4.7c3.8,0,7.2-2.1,8.9-5.5l3.4-6.8c13-25.9,13-56.8,0-82.7l-3.4-6.8
	c-1.7-3.4-5.2-5.5-8.9-5.5h-3l8.5-8.5h9.5C367.2,332.3,387.3,352.4,387.3,377.1z M279.7,332.3h25l-13.6,13.6
	c-10.2,3.3-19.9,8.3-28.8,14.9c-1.9-0.3-3.8-0.5-5.7-0.5c-1.9,0-3.8,0.2-5.7,0.5c-8.8-6.5-18.5-11.4-28.8-14.8l-13.6-13.6h25
	c5.5,0,10-4.5,10-10v-28c4.3,0.4,8.7,0.6,13.1,0.6c4.4,0,8.8-0.2,13.1-0.6v28C269.7,327.8,274.2,332.3,279.7,332.3z M256.6,274.9
	c-62.6,0-113.6-51-113.6-113.6c0-0.3,0-0.6,0-0.9c39.9-2.2,69.8-18.1,88.3-31.7c11.2-8.2,19.6-16.3,25.1-22.4
	c5.6,6.1,14,14.3,25.2,22.4c18.6,13.5,48.6,29.4,88.5,31.6c0,0.3,0,0.6,0,0.9C370.3,223.9,319.3,274.9,256.6,274.9z M382.2,207
	c5.2-14.3,8.1-29.6,8.1-45.7c0-3.6-0.2-7.2-0.4-10.8V130c8.8-1.7,16.7-5.7,23.2-11.3c0.4,1,0.8,2,1.1,3l24,85.2L382.2,207L382.2,207
	z"/>
</svg>
