<svg id="Layer_1" data-name="Layer 1" xmlns="http://www.w3.org/2000/svg" viewBox="0 0 640 640">
  <defs>
    <style>
      .cls-1 {
        fill: #192626;
      }
    </style>
  </defs>
  <title>LendR_logo</title>
  <path id="c1frrnAMYY" class="cls-1" d="M505.05,128.82,599,218.66l-93.89.05Z"/>
  <path id="b1bzd6M4PD" class="cls-1" d="M438.19,194.42l56-65.6-.75,131.84-.74,131.83-55.21-66.22L382.23,260Z"/>
  <path id="c4WzW242hb" class="cls-1" d="M316.4,458.77l-39.73-47.95-8.07,87.86-8.08,87.86,47.81-39.9,47.8-39.92Z"/>
  <g>
    <path class="cls-1" d="M258.57,277.43l-.32-.4q-9.94,9.57-15.55,14.18l-27,22.24,18.11,21.94Z"/>
    <polygon class="cls-1" points="337.5 461.03 351.27 477.71 362.29 447.98 358.69 443.61 337.5 461.03"/>
    <path class="cls-1" d="M389.8,438.64q6.6-5.43-.7-14.32l-2.8-3.41-14.62,12,2.67,3.23Q381.79,445.22,389.8,438.64Z"/>
    <path class="cls-1" d="M310.55,394.29q7.59-.09,17-7.82,8.79-7.23,10.17-14.2t-4.44-14l-4.14-5-35.83,29.47,3.17,3.85Q302.95,394.38,310.55,394.29Z"/>
    <path class="cls-1" d="M250.81,129.3l-187.58-.48,51.86,62.81,62.42-51.32,14.21,17.28-50,41.12L162,223.34l-12.33,10.14,10.66,12.9,62.31-51.23,31.22,38L240,244.53l-17-20.7-10.06,8.28,15.75,19.16-13.87,11.4L199,243.51l-12.08,9.93,17,20.69-12.36,10.16L203,298.16,265.24,247l18.56,22.58-25.31,59.82.22.26q9.15-8.55,15-13.38l28.92-23.78,12.66,15.4-62.08,51,13.61,16.49,62.05-51,18.2,22.14q12.68,15.39,11.68,30.25T342.91,403.9q-16,13.17-31.93,11.48a36.61,36.61,0,0,1-15.86-5.69l28.14,34.09,61.91-50.91,17.23,21q21.44,26.07,2.54,41.61-11.12,9.15-26.12,3.29l-11.57,38.34,2.95,3.57,112.21-92.39Z"/>
  </g>
  <path id="aHhN71LsT" class="cls-1" d="M157.46,578l98.43-84.9-8.95,93.46Z"/>
</svg>
