<?xml version="1.0" encoding="iso-8859-1"?>
<!-- Generator: Adobe Illustrator 19.0.0, SVG Export Plug-In . SVG Version: 6.00 Build 0)  -->
<svg version="1.1" id="Capa_1" xmlns="http://www.w3.org/2000/svg" xmlns:xlink="http://www.w3.org/1999/xlink" x="0px" y="0px"
	 viewBox="0 0 512.001 512.001" style="enable-background:new 0 0 512.001 512.001;" xml:space="preserve">
<g>
	<g>
		<path d="M453.709,250.134l10.233,7.49c1.725,1.262,3.796,1.93,5.906,1.93c0.509,0,1.02-0.039,1.53-0.118
			c2.621-0.406,4.973-1.836,6.539-3.977l32.153-43.935c3.262-4.456,2.293-10.714-2.163-13.976l-246-180.039
			c-3.518-2.573-8.296-2.574-11.812,0l-246,180.039c-4.457,3.262-5.426,9.519-2.164,13.976l32.154,43.935
			c1.566,2.14,3.919,3.571,6.539,3.977c2.622,0.405,5.296-0.246,7.436-1.813l10.797-7.902v236.702c0,5.523,4.477,10,10,10h383.068
			c3.995,0,7.607-2.378,9.186-6.047l20.042-46.578c1.33-3.09,1.017-6.642-0.833-9.452c-1.85-2.81-4.988-4.501-8.353-4.501h-18.26
			V250.134H453.709z M116.178,476.423h-37.32v-70.75h37.32V476.423z M172.378,476.423h-36.2v-70.75h36.2V476.423z M78.858,385.673
			V292.72h290.129c5.522,0,10-4.477,10-10s-4.478-10-10-10H78.858v-37.633l177.144-129.648l177.707,130.058v150.176h-94.368
			c-3.534-42.796-39.493-76.54-83.185-76.54h-0.308c-43.692,0-79.651,33.744-83.185,76.54H78.858z M433.709,405.673v24.172h-36.764
			v-24.172H433.709z M376.945,405.673v24.172h-37.319v-24.172H376.945z M192.378,476.423v-83.819c0-34.998,28.473-63.47,63.47-63.47
			h0.308c34.998,0,63.47,28.473,63.47,63.47v37.241h-31.969c-3.364,0-6.503,1.691-8.353,4.501c-1.85,2.81-2.163,6.361-0.833,9.452
			l14.038,32.625H192.378z M456.779,449.845l-11.436,26.578h-131.06l-11.437-26.578H456.779z M261.908,84.977
			c-0.44-0.322-0.899-0.603-1.373-0.844c-1.423-0.724-2.978-1.086-4.533-1.086c-1.037,0-2.074,0.161-3.071,0.483
			s-1.956,0.804-2.835,1.448l-17.759,12.997L44.32,235.578l-20.342-27.795l232.024-169.81l232.024,169.811l-20.342,27.795
			L261.908,84.977z"/>
	</g>
</g>
<g>
	<g>
		<path d="M340.368,190.459c0-18.372-14.947-33.32-33.32-33.32c-16.209,0-29.752,11.635-32.717,26.992h-36.66
			c-2.964-15.357-16.508-26.992-32.717-26.992c-18.372,0-33.319,14.947-33.319,33.32c0,7.414,2.49,14.508,6.864,20.237
			c-4.375,5.729-6.864,12.823-6.864,20.237c0,18.372,14.947,33.319,33.319,33.319c16.21,0,29.753-11.635,32.717-26.992h36.66
			c2.965,15.357,16.508,26.992,32.717,26.992c18.373,0,33.32-14.947,33.32-33.319c0-7.414-2.49-14.508-6.864-20.237
			C337.878,204.966,340.368,197.872,340.368,190.459z M313.664,219.368c4.136,2.374,6.704,6.805,6.704,11.564
			c0,7.344-5.976,13.319-13.32,13.319c-7.345,0-13.319-5.975-13.319-13.319c0-0.708,0.056-1.417,0.165-2.108
			c0.458-2.889-0.373-5.834-2.272-8.059c-1.9-2.225-4.679-3.505-7.605-3.505h-56.031c-2.925,0-5.704,1.281-7.604,3.505
			c-1.9,2.225-2.73,5.169-2.273,8.059c0.109,0.689,0.165,1.399,0.165,2.108c0,7.344-5.975,13.319-13.32,13.319
			c-7.344,0-13.319-5.975-13.319-13.319c0-4.759,2.568-9.19,6.703-11.564c3.106-1.783,5.021-5.091,5.021-8.672
			s-1.914-6.889-5.02-8.672c-4.135-2.375-6.704-6.806-6.704-11.566c0-7.345,5.975-13.32,13.319-13.32
			c7.345,0,13.32,5.975,13.32,13.32c0,0.71-0.055,1.419-0.165,2.108c-0.458,2.889,0.373,5.834,2.273,8.059
			c1.9,2.225,4.679,3.505,7.604,3.505h56.031c2.926,0,5.704-1.281,7.605-3.505c1.899-2.225,2.73-5.169,2.272-8.059
			c-0.109-0.691-0.165-1.401-0.165-2.108c0-7.345,5.975-13.32,13.319-13.32c7.345,0,13.32,5.975,13.32,13.32
			c0,4.759-2.569,9.191-6.704,11.566c-3.105,1.783-5.02,5.091-5.02,8.672S310.559,217.585,313.664,219.368z"/>
	</g>
</g>
<g>
	<g>
		<path d="M411.46,275.652c-0.46-0.46-0.97-0.88-1.52-1.25c-0.54-0.36-1.12-0.67-1.72-0.92c-0.61-0.25-1.24-0.44-1.87-0.57
			c-1.29-0.26-2.62-0.26-3.91,0c-0.64,0.13-1.27,0.32-1.87,0.57c-0.609,0.25-1.189,0.56-1.729,0.92c-0.55,0.37-1.06,0.79-1.521,1.25
			c-1.859,1.86-2.93,4.44-2.93,7.07c0,0.65,0.07,1.31,0.2,1.95c0.131,0.64,0.322,1.269,0.572,1.87c0.25,0.61,0.56,1.19,0.92,1.73
			c0.359,0.55,0.779,1.06,1.239,1.52c0.461,0.46,0.971,0.88,1.521,1.24c0.54,0.36,1.12,0.67,1.729,0.92
			c0.601,0.25,1.23,0.44,1.87,0.57c0.641,0.13,1.301,0.2,1.95,0.2c0.65,0,1.311-0.07,1.96-0.2c0.63-0.13,1.26-0.32,1.87-0.57
			c0.6-0.25,1.18-0.56,1.72-0.92c0.551-0.36,1.06-0.78,1.52-1.24c0.46-0.46,0.88-0.97,1.25-1.52c0.359-0.54,0.67-1.12,0.92-1.73
			c0.25-0.6,0.439-1.23,0.57-1.87c0.13-0.64,0.189-1.3,0.189-1.95C414.39,280.082,413.32,277.512,411.46,275.652z"/>
	</g>
</g>
<g>
</g>
<g>
</g>
<g>
</g>
<g>
</g>
<g>
</g>
<g>
</g>
<g>
</g>
<g>
</g>
<g>
</g>
<g>
</g>
<g>
</g>
<g>
</g>
<g>
</g>
<g>
</g>
<g>
</g>
</svg>
