<?xml version="1.0" encoding="utf-8"?>
<!-- Generator: Adobe Illustrator 22.1.0, SVG Export Plug-In . SVG Version: 6.00 Build 0)  -->
<svg version="1.1" id="Capa_1" xmlns="http://www.w3.org/2000/svg" xmlns:xlink="http://www.w3.org/1999/xlink" x="0px" y="0px"
	 viewBox="0 0 512 512" style="enable-background:new 0 0 512 512;" xml:space="preserve">
<style type="text/css">
	.st0{fill:#FFFFFF;}
</style>
<g>
	<g>
		<path class="st0" d="M453.7,250.1l10.2,7.5c1.7,1.3,3.8,1.9,5.9,1.9c0.5,0,1,0,1.5-0.1c2.6-0.4,5-1.8,6.5-4l32.2-43.9
			c3.3-4.5,2.3-10.7-2.2-14l-246-180c-3.5-2.6-8.3-2.6-11.8,0l-246,180c-4.5,3.3-5.4,9.5-2.2,14l32.2,43.9c1.6,2.1,3.9,3.6,6.5,4
			c2.6,0.4,5.3-0.2,7.4-1.8l10.8-7.9v236.7c0,5.5,4.5,10,10,10h383.1c4,0,7.6-2.4,9.2-6l20-46.6c1.3-3.1,1-6.6-0.8-9.5
			s-5-4.5-8.4-4.5h-18.3L453.7,250.1L453.7,250.1z M116.2,476.4H78.9v-70.8h37.3V476.4z M172.4,476.4h-36.2v-70.8h36.2V476.4z
			 M78.9,385.7v-93H369c5.5,0,10-4.5,10-10s-4.5-10-10-10H78.9v-37.6L256,105.4l177.7,130.1v150.2h-94.4
			c-3.5-42.8-39.5-76.5-83.2-76.5h-0.3c-43.7,0-79.7,33.7-83.2,76.5H78.9z M433.7,405.7v24.2h-36.8v-24.2H433.7z M376.9,405.7v24.2
			h-37.3v-24.2H376.9z M192.4,476.4v-83.8c0-35,28.5-63.5,63.5-63.5h0.3c35,0,63.5,28.5,63.5,63.5v37.2h-32c-3.4,0-6.5,1.7-8.4,4.5
			s-2.2,6.4-0.8,9.5l14,32.6H192.4z M456.8,449.8l-11.4,26.6H314.3l-11.4-26.6H456.8z M261.9,85c-0.4-0.3-0.9-0.6-1.4-0.8
			c-1.4-0.7-3-1.1-4.5-1.1c-1,0-2.1,0.2-3.1,0.5s-2,0.8-2.8,1.4l-17.8,13l-188,137.6L24,207.8L256,38l232,169.8l-20.3,27.8L261.9,85
			z"/>
	</g>
</g>
<g>
	<g>
		<path class="st0" d="M340.4,190.5c0-18.4-14.9-33.3-33.3-33.3c-16.2,0-29.8,11.6-32.7,27h-36.7c-3-15.4-16.5-27-32.7-27
			c-18.4,0-33.3,14.9-33.3,33.3c0,7.4,2.5,14.5,6.9,20.2c-4.4,5.7-6.9,12.8-6.9,20.2c0,18.4,14.9,33.3,33.3,33.3
			c16.2,0,29.8-11.6,32.7-27h36.7c3,15.4,16.5,27,32.7,27c18.4,0,33.3-14.9,33.3-33.3c0-7.4-2.5-14.5-6.9-20.2
			C337.9,205,340.4,197.9,340.4,190.5z M313.7,219.4c4.1,2.4,6.7,6.8,6.7,11.6c0,7.3-6,13.3-13.3,13.3c-7.3,0-13.3-6-13.3-13.3
			c0-0.7,0.1-1.4,0.2-2.1c0.5-2.9-0.4-5.8-2.3-8.1c-1.9-2.2-4.7-3.5-7.6-3.5h-56c-2.9,0-5.7,1.3-7.6,3.5c-1.9,2.2-2.7,5.2-2.3,8.1
			c0.1,0.7,0.2,1.4,0.2,2.1c0,7.3-6,13.3-13.3,13.3c-7.3,0-13.3-6-13.3-13.3c0-4.8,2.6-9.2,6.7-11.6c3.1-1.8,5-5.1,5-8.7
			s-1.9-6.9-5-8.7c-4.1-2.4-6.7-6.8-6.7-11.6c0-7.3,6-13.3,13.3-13.3c7.3,0,13.3,6,13.3,13.3c0,0.7-0.1,1.4-0.2,2.1
			c-0.5,2.9,0.4,5.8,2.3,8.1s4.7,3.5,7.6,3.5h56c2.9,0,5.7-1.3,7.6-3.5c1.9-2.2,2.7-5.2,2.3-8.1c-0.1-0.7-0.2-1.4-0.2-2.1
			c0-7.3,6-13.3,13.3-13.3c7.3,0,13.3,6,13.3,13.3c0,4.8-2.6,9.2-6.7,11.6c-3.1,1.8-5,5.1-5,8.7S310.6,217.6,313.7,219.4z"/>
	</g>
</g>
<g>
	<g>
		<path class="st0" d="M411.5,275.7c-0.5-0.5-1-0.9-1.5-1.2c-0.5-0.4-1.1-0.7-1.7-0.9c-0.6-0.2-1.2-0.4-1.9-0.6
			c-1.3-0.3-2.6-0.3-3.9,0c-0.6,0.1-1.3,0.3-1.9,0.6c-0.6,0.2-1.2,0.6-1.7,0.9c-0.5,0.4-1.1,0.8-1.5,1.2c-1.9,1.9-2.9,4.4-2.9,7.1
			c0,0.6,0.1,1.3,0.2,2c0.1,0.6,0.3,1.3,0.6,1.9c0.2,0.6,0.6,1.2,0.9,1.7c0.4,0.5,0.8,1.1,1.2,1.5c0.5,0.5,1,0.9,1.5,1.2
			c0.5,0.4,1.1,0.7,1.7,0.9c0.6,0.2,1.2,0.4,1.9,0.6c0.6,0.1,1.3,0.2,2,0.2c0.6,0,1.3-0.1,2-0.2c0.6-0.1,1.3-0.3,1.9-0.6
			c0.6-0.2,1.2-0.6,1.7-0.9c0.6-0.4,1.1-0.8,1.5-1.2s0.9-1,1.2-1.5c0.4-0.5,0.7-1.1,0.9-1.7c0.2-0.6,0.4-1.2,0.6-1.9
			c0.1-0.6,0.2-1.3,0.2-2C414.4,280.1,413.3,277.5,411.5,275.7z"/>
	</g>
</g>
</svg>
