<?xml version="1.0" encoding="iso-8859-1"?>
<!-- Generator: Adobe Illustrator 19.0.0, SVG Export Plug-In . SVG Version: 6.00 Build 0)  -->
<svg version="1.1" id="Capa_1" xmlns="http://www.w3.org/2000/svg" xmlns:xlink="http://www.w3.org/1999/xlink" x="0px" y="0px"
	 viewBox="0 0 512 512" style="enable-background:new 0 0 512 512;" xml:space="preserve">
<g>
	<g>
		<path d="M367.021,288.509c-0.469-0.46-0.979-0.88-1.529-1.25c-0.54-0.36-1.12-0.67-1.721-0.92c-0.6-0.25-1.229-0.44-1.87-0.57
			c-1.29-0.26-2.619-0.26-3.909,0c-0.64,0.13-1.27,0.32-1.87,0.57c-0.6,0.25-1.19,0.56-1.73,0.92c-0.55,0.37-1.06,0.79-1.52,1.25
			c-1.861,1.86-2.931,4.43-2.931,7.07c0,0.65,0.07,1.31,0.2,1.95c0.13,0.64,0.32,1.27,0.57,1.87c0.25,0.61,0.56,1.19,0.92,1.73
			c0.36,0.55,0.78,1.06,1.24,1.52c0.461,0.46,0.97,0.88,1.52,1.24c0.54,0.361,1.129,0.671,1.73,0.921
			c0.599,0.25,1.229,0.44,1.87,0.57c0.649,0.13,1.299,0.2,1.949,0.2c0.66,0,1.31-0.07,1.961-0.2c0.641-0.13,1.27-0.32,1.87-0.57
			c0.601-0.25,1.181-0.561,1.721-0.921c0.55-0.36,1.059-0.78,1.529-1.24c0.46-0.46,0.88-0.97,1.24-1.52
			c0.36-0.54,0.67-1.12,0.92-1.73c0.25-0.6,0.44-1.23,0.57-1.87s0.19-1.3,0.19-1.95
			C369.941,292.939,368.881,290.369,367.021,288.509z"/>
	</g>
</g>
<g>
	<g>
		<path d="M471.997,204.501h-40.415c3.759-6.308,5.764-13.546,5.764-21.12v-8.111h3.612c5.522,0,10-4.477,10-10s-4.478-10-10-10
			h-3.612v-7.818c0-5.523-4.478-10-10-10h-67.401c-5.522,0-10,4.477-10,10v35.929c0,7.574,2.005,14.812,5.764,21.12H228.504v-17.533
			h80.724c5.522,0,10-4.477,10-10V10c0-5.523-4.478-10-10-10H58.779c-5.522,0-10,4.477-10,10v166.968c0,5.523,4.478,10,10,10h80.725
			v17.533H40.003c-5.522,0-10,4.477-10,10v47.574c0,5.523,4.478,10,10,10h17.024V502c0,5.523,4.478,10,10,10h37.976
			c5.522,0,10-4.477,10-10V339.082h281.994V502c0,5.523,4.478,10,10,10h37.976c5.522,0,10-4.477,10-10V272.075h17.024
			c5.522,0,10-4.477,10-10v-47.574C481.997,208.978,477.52,204.501,471.997,204.501z M369.945,157.452h47.401v25.929
			c0,5.789-2.257,11.188-6.355,15.205c-3.804,3.727-8.769,5.798-14.048,5.915h-6.787c-5.219-0.141-10.098-2.234-13.856-5.915
			c-4.099-4.016-6.355-9.416-6.355-15.205V157.452z M68.779,20h230.448v101.165H68.779V20z M68.779,166.968v-25.803h230.448v25.803
			H68.779z M208.504,186.968v17.533h-49v-17.533H208.504z M95.003,492H77.027V272.075h17.976V492z M396.997,319.082H115.003v0
			v-13.503h202.942c5.522,0,10-4.477,10-10s-4.478-10-10-10H115.003v-13.503h281.994V319.082z M434.973,492h-17.976V272.075h17.976
			V492z M461.997,252.075H50.003v-27.574h411.994V252.075z"/>
	</g>
</g>
<g>
</g>
<g>
</g>
<g>
</g>
<g>
</g>
<g>
</g>
<g>
</g>
<g>
</g>
<g>
</g>
<g>
</g>
<g>
</g>
<g>
</g>
<g>
</g>
<g>
</g>
<g>
</g>
<g>
</g>
</svg>
