<?xml version="1.0" encoding="utf-8"?>
<!-- Generator: Adobe Illustrator 22.1.0, SVG Export Plug-In . SVG Version: 6.00 Build 0)  -->
<svg version="1.1" id="Capa_1" xmlns="http://www.w3.org/2000/svg" xmlns:xlink="http://www.w3.org/1999/xlink" x="0px" y="0px"
	 viewBox="0 0 512 512" style="enable-background:new 0 0 512 512;" xml:space="preserve">
<style type="text/css">
	.st0{fill:#FFFFFF;}
</style>
<g>
	<g>
		<path class="st0" d="M367,288.5c-0.5-0.5-1-0.9-1.5-1.2c-0.5-0.4-1.1-0.7-1.7-0.9c-0.6-0.2-1.2-0.4-1.9-0.6
			c-1.3-0.3-2.6-0.3-3.9,0c-0.6,0.1-1.3,0.3-1.9,0.6s-1.2,0.6-1.7,0.9c-0.5,0.4-1.1,0.8-1.5,1.2c-1.9,1.9-2.9,4.4-2.9,7.1
			c0,0.6,0.1,1.3,0.2,2s0.3,1.3,0.6,1.9c0.2,0.6,0.6,1.2,0.9,1.7c0.4,0.5,0.8,1.1,1.2,1.5c0.5,0.5,1,0.9,1.5,1.2
			c0.5,0.4,1.1,0.7,1.7,0.9c0.6,0.2,1.2,0.4,1.9,0.6c0.6,0.1,1.3,0.2,1.9,0.2c0.7,0,1.3-0.1,2-0.2c0.6-0.1,1.3-0.3,1.9-0.6
			c0.6-0.2,1.2-0.6,1.7-0.9c0.5-0.4,1.1-0.8,1.5-1.2c0.5-0.5,0.9-1,1.2-1.5c0.4-0.5,0.7-1.1,0.9-1.7c0.2-0.6,0.4-1.2,0.6-1.9
			s0.2-1.3,0.2-2C369.9,292.9,368.9,290.4,367,288.5z"/>
	</g>
</g>
<g>
	<g>
		<path class="st0" d="M472,204.5h-40.4c3.8-6.3,5.8-13.5,5.8-21.1v-8.1h3.6c5.5,0,10-4.5,10-10s-4.5-10-10-10h-3.6v-7.8
			c0-5.5-4.5-10-10-10h-67.4c-5.5,0-10,4.5-10,10v35.9c0,7.6,2,14.8,5.8,21.1H228.5V187h80.7c5.5,0,10-4.5,10-10V10
			c0-5.5-4.5-10-10-10H58.8c-5.5,0-10,4.5-10,10v167c0,5.5,4.5,10,10,10h80.7v17.5H40c-5.5,0-10,4.5-10,10v47.6c0,5.5,4.5,10,10,10
			h17V502c0,5.5,4.5,10,10,10h38c5.5,0,10-4.5,10-10V339.1h282V502c0,5.5,4.5,10,10,10h38c5.5,0,10-4.5,10-10V272.1h17
			c5.5,0,10-4.5,10-10v-47.6C482,209,477.5,204.5,472,204.5z M369.9,157.5h47.4v25.9c0,5.8-2.3,11.2-6.4,15.2
			c-3.8,3.7-8.8,5.8-14,5.9h-6.8c-5.2-0.1-10.1-2.2-13.9-5.9c-4.1-4-6.4-9.4-6.4-15.2V157.5z M68.8,20h230.4v101.2H68.8V20z
			 M68.8,167v-25.8h230.4V167H68.8z M208.5,187v17.5h-49V187H208.5z M95,492H77V272.1h18V492z M397,319.1H115l0,0v-13.5h202.9
			c5.5,0,10-4.5,10-10s-4.5-10-10-10H115v-13.5h282L397,319.1L397,319.1z M435,492h-18V272.1h18V492z M462,252.1H50v-27.6h412
			L462,252.1L462,252.1z"/>
	</g>
</g>
</svg>
