<?xml version="1.0" encoding="utf-8"?>
<!-- Generator: Adobe Illustrator 22.1.0, SVG Export Plug-In . SVG Version: 6.00 Build 0)  -->
<svg version="1.1" id="Capa_1" xmlns="http://www.w3.org/2000/svg" xmlns:xlink="http://www.w3.org/1999/xlink" x="0px" y="0px"
	 viewBox="0 0 512 512" style="enable-background:new 0 0 512 512;" xml:space="preserve">
<style type="text/css">
	.st0{fill:#FFFFFF;}
</style>
<g>
	<g>
		<path class="st0" d="M347.6,296.3c-0.5-0.5-1-0.9-1.5-1.2c-0.5-0.4-1.1-0.7-1.7-0.9s-1.2-0.4-1.9-0.6c-1.3-0.3-2.6-0.3-3.9,0
			c-0.6,0.1-1.3,0.3-1.9,0.6s-1.2,0.6-1.7,0.9c-0.5,0.4-1,0.8-1.5,1.2c-0.5,0.5-0.9,1-1.2,1.5c-0.4,0.5-0.7,1.1-0.9,1.7
			c-0.2,0.6-0.4,1.2-0.6,1.9s-0.2,1.3-0.2,2c0,0.6,0.1,1.3,0.2,2s0.3,1.3,0.6,1.9c0.2,0.6,0.6,1.2,0.9,1.7c0.4,0.5,0.8,1.1,1.2,1.5
			c0.5,0.5,1,0.9,1.5,1.2c0.5,0.4,1.1,0.7,1.7,0.9s1.2,0.4,1.9,0.6c0.6,0.1,1.3,0.2,2,0.2c0.6,0,1.3-0.1,2-0.2
			c0.6-0.1,1.3-0.3,1.9-0.6s1.2-0.6,1.7-0.9c0.5-0.4,1-0.8,1.5-1.2c0.5-0.5,0.9-1,1.2-1.5c0.4-0.5,0.7-1.1,0.9-1.7
			c0.2-0.6,0.4-1.2,0.6-1.9s0.2-1.3,0.2-2C350.5,300.7,349.5,298.2,347.6,296.3z"/>
	</g>
</g>
<g>
	<g>
		<path class="st0" d="M181.3,301.4c-0.1-0.6-0.3-1.3-0.6-1.9c-0.2-0.6-0.6-1.2-0.9-1.7c-0.4-0.5-0.8-1.1-1.2-1.5
			c-0.5-0.5-1-0.9-1.5-1.2c-0.5-0.4-1.1-0.7-1.7-0.9s-1.2-0.4-1.9-0.6c-1.3-0.3-2.6-0.3-3.9,0c-0.6,0.1-1.3,0.3-1.9,0.6
			c-0.6,0.2-1.2,0.6-1.7,0.9c-0.5,0.4-1.1,0.8-1.5,1.2s-0.9,1-1.2,1.5c-0.4,0.5-0.7,1.1-0.9,1.7c-0.2,0.6-0.4,1.2-0.6,1.9
			s-0.2,1.3-0.2,2c0,2.6,1.1,5.2,2.9,7.1c0.5,0.5,1,0.9,1.5,1.2c0.6,0.4,1.1,0.7,1.7,0.9s1.2,0.4,1.9,0.6c0.6,0.1,1.3,0.2,2,0.2
			c0.6,0,1.3-0.1,1.9-0.2c0.6-0.1,1.3-0.3,1.9-0.6c0.6-0.2,1.2-0.6,1.7-0.9c0.6-0.4,1.1-0.8,1.5-1.2c0.5-0.5,0.9-1,1.2-1.5
			c0.4-0.5,0.7-1.1,0.9-1.7c0.2-0.6,0.4-1.2,0.6-1.9c0.1-0.7,0.2-1.3,0.2-2S181.4,302.1,181.3,301.4z"/>
	</g>
</g>
<g>
	<g>
		<path class="st0" d="M502,402.3c-5.5,0-10,4.5-10,10v35.2l-225.4-400l14.2-14.2c3.9-3.9,3.9-10.2,0-14.1s-10.2-3.9-14.1,0
			L256,29.9l-10.6-10.6c-3.9-3.9-10.2-3.9-14.1,0s-3.9,10.2,0,14.1l14.2,14.2L20,447.5v-35.2c0-5.5-4.5-10-10-10s-10,4.5-10,10
			c0,0,0,55,0,73.3c0,10,9.8,10,10,10h492c0.2,0,10,0,10-10c0-18.3,0-73.3,0-73.3C512,406.8,507.5,402.3,502,402.3z M256,69.5
			l45.8,81.3h-91.6L256,69.5z M198.9,170.8h114.2l15.4,27.3H183.5L198.9,170.8z M136.5,475.7L256,295.2l19.9,30l-99.6,150.4H136.5z
			 M200.3,475.7l87.6-132.3l87.6,132.3H200.3z M456.6,475.7c-0.1-0.3-0.3-0.6-0.5-0.8l-88.1-145.3c-2.9-4.7-9-6.2-13.7-3.4
			c-4.7,2.9-6.2,9-3.4,13.7l82.3,135.8h-33.8L264.3,271.6c-1.9-2.8-5-4.5-8.3-4.5c-3.4,0-6.5,1.7-8.3,4.5L112.5,475.7H78.7
			L159,343.2c2.9-4.7,1.4-10.9-3.4-13.7c-4.7-2.9-10.9-1.4-13.7,3.4l-86.1,142c-0.2,0.3-0.3,0.6-0.5,0.8H27.1l145.2-257.6h167.5
			l145.2,257.6L456.6,475.7L456.6,475.7z"/>
	</g>
</g>
</svg>
