<?xml version="1.0" encoding="utf-8"?>
<!-- Generator: Adobe Illustrator 22.1.0, SVG Export Plug-In . SVG Version: 6.00 Build 0)  -->
<svg version="1.1" id="Capa_1" xmlns="http://www.w3.org/2000/svg" xmlns:xlink="http://www.w3.org/1999/xlink" x="0px" y="0px"
	 viewBox="0 0 512 512" style="enable-background:new 0 0 512 512;" xml:space="preserve">
<style type="text/css">
	.st0{fill:#FFFFFF;}
</style>
<g>
	<g>
		<path class="st0" d="M405,114.8c-0.1-0.6-0.3-1.3-0.6-1.9c-0.2-0.6-0.6-1.2-0.9-1.7c-0.4-0.6-0.8-1.1-1.2-1.5
			c-2.3-2.3-5.8-3.4-9-2.7c-0.6,0.1-1.3,0.3-1.9,0.6c-0.6,0.2-1.2,0.6-1.7,0.9c-0.5,0.4-1.1,0.8-1.5,1.2c-0.5,0.5-0.9,1-1.2,1.5
			c-0.4,0.5-0.7,1.1-0.9,1.7s-0.4,1.2-0.6,1.9c-0.1,0.6-0.2,1.3-0.2,1.9c0,0.7,0.1,1.3,0.2,2c0.1,0.6,0.3,1.3,0.6,1.9
			c0.2,0.6,0.6,1.2,0.9,1.7c0.4,0.6,0.8,1.1,1.2,1.5c0.5,0.5,1,0.9,1.5,1.2c0.5,0.4,1.1,0.7,1.7,0.9c0.6,0.2,1.2,0.4,1.9,0.6
			c0.6,0.1,1.3,0.2,2,0.2c2.6,0,5.2-1.1,7.1-2.9c0.5-0.5,0.9-1,1.2-1.5c0.4-0.5,0.7-1.1,0.9-1.7c0.2-0.6,0.4-1.2,0.6-1.9
			c0.1-0.7,0.2-1.3,0.2-2C405.2,116.1,405.2,115.5,405,114.8z"/>
	</g>
</g>
<g>
	<g>
		<path class="st0" d="M463.7,48.3c-34-34-80.9-51-131.9-47.9C281.2,3.4,232.5,26,194.7,63.8c-2.1,2.1-4.1,4.2-6.1,6.4
			c-12.5-10-28.3-16-45.5-16c-40.2,0-72.9,32.7-72.9,72.9c0,36.2,26.6,66.4,61.3,72c-1.8,25.3,1.5,50.5,9.7,73.3
			c5.7,15.9,1.8,33.7-9.9,45.4L2.9,445.9c-3.9,3.9-3.9,10.2,0,14.1l49,49c2,2,4.5,2.9,7.1,2.9c2.6,0,5.1-1,7.1-2.9l128.2-128.2
			c11.7-11.7,29.5-15.6,45.4-9.9c69.3,24.7,151.2,3.7,208.5-53.7c37.8-37.8,60.4-86.5,63.4-137.1C514.7,129.2,497.7,82.3,463.7,48.3
			z M327.2,273.8l-40.4,40.4c-19.6-2.1-38-9.3-53.3-21.6l56.2-56.2L327.2,273.8z M304,222.2l53-53l37.4,37.4l-53,53L304,222.2z
			 M341.4,287.9l14.3,14.3c-13.1,6-26.7,9.9-40.2,11.6L341.4,287.9z M355.5,273.8l53-53l17.6,17.6c-6.7,11.5-15,22.3-24.8,32.1
			c-8.5,8.5-17.7,15.8-27.2,21.9L355.5,273.8z M422.7,206.6l22-22c-1.5,11.8-4.6,23.5-9.2,34.8L422.7,206.6z M443,158l-34.5,34.5
			L371.1,155l4.2-4.2c3.9-3.9,3.9-10.2,0-14.1c-3.9-3.9-10.2-3.9-14.1,0l-4.2,4.2l-37.4-37.4L354,69c0.6-0.6,1.1-1.3,1.6-2
			c23.8,2.4,45,12.2,61.2,28.3c16.1,16.1,25.9,37.4,28.3,61.1C444.3,156.8,443.6,157.3,443,158z M305.4,89.3l-12.8-12.8
			c11.2-4.6,22.9-7.7,34.8-9.2L305.4,89.3z M305.4,117.6l37.4,37.4l-53,53l-37.4-37.4L305.4,117.6z M238.2,156.5L219.7,138
			c6.1-9.6,13.4-18.8,21.9-27.2c9.8-9.8,20.6-18.1,32.1-24.8l17.6,17.6L238.2,156.5z M224.2,170.9l-26.5,25.3
			c2-13.4,6.2-26.9,12.5-39.9L224.2,170.9z M238.2,184.8l37.4,37.4l-56.2,56.2c-12.3-15.2-19.5-33.6-21.6-53.3L238.2,184.8z
			 M143,180c-29.2,0-52.9-23.7-52.9-52.9s23.7-52.9,52.9-52.9c29.2,0,52.9,23.7,52.9,52.9C195.9,156.2,172.2,180,143,180z M59,487.9
			L24.1,453l54.8-54.8l34.9,34.9L59,487.9z M127.9,418.9l-34.9-34.9l22.1-22.1l34.9,34.9L127.9,418.9z M434.1,303.2
			c-51.9,51.9-125.6,71.1-187.7,49c-23.1-8.3-49.1-2.5-66.3,14.6l-15.9,15.9l-34.9-34.9l15.9-15.9c17.1-17.1,22.9-43.1,14.6-66.3
			c-7.3-20.5-10.2-43.2-8.5-66.1c9.9-1.1,19.2-4.3,27.5-9c-6.1,40.6,4.6,81,33.1,109.5c23.3,23.3,54.6,34.7,87.5,34.7
			c40.2,0,82.7-17,115.9-50.2c29-29,46.7-66,49.8-104.1c3.2-38.8-9-74-34.3-99.3c-25.3-25.3-60.6-37.5-99.3-34.3
			c-38.2,3.1-75.1,20.8-104.1,49.8c-4.8,4.8-9.2,9.7-13.3,14.8c-2.1-9.8-6.2-18.8-11.9-26.7c2.1-2.3,4.3-4.6,6.5-6.8
			C279.5,7.3,387.5,0.4,449.5,62.5S504.7,232.5,434.1,303.2z"/>
	</g>
</g>
</svg>
